<svg xmlns="http://www.w3.org/2000/svg" xmlns:xlink="http://www.w3.org/1999/xlink" version="1.1" width="256" height="256" viewBox="0 0 256 256" xml:space="preserve">
<g style="stroke: none; stroke-width: 0; stroke-dasharray: none; stroke-linecap: butt; stroke-linejoin: miter; stroke-miterlimit: 10; fill: none; fill-rule: nonzero; opacity: 1;" transform="translate(1.4065934065934016 1.4065934065934016) scale(2.81 2.81)">
	<linearGradient id="SVGID_3" gradientUnits="userSpaceOnUse" x1="45" y1="-15.5769" x2="45" y2="96.1113">
<stop offset="0%" style="stop-color:rgb(247,232,48);stop-opacity: 1"/>
<stop offset="100%" style="stop-color:rgb(253,203,6);stop-opacity: 1"/>
</linearGradient>
<path d="M 77.8 90 H 12.2 C 5.462 90 0 84.538 0 77.8 V 12.2 C 0 5.462 5.462 0 12.2 0 h 65.6 C 84.538 0 90 5.462 90 12.2 v 65.6 C 90 84.538 84.538 90 77.8 90 z" style="stroke: none; stroke-width: 1; stroke-dasharray: none; stroke-linecap: butt; stroke-linejoin: miter; stroke-miterlimit: 10; fill: url(#SVGID_3); fill-rule: nonzero; opacity: 1;" transform=" matrix(1 0 0 1 0 0) " stroke-linecap="round"/>
	<linearGradient id="SVGID_4" gradientUnits="userSpaceOnUse" gradientTransform="matrix(1 0 0 1 -8.2197 -110.4912)" x1="75.0655" y1="124.6691" x2="75.0879" y2="128.3986">
<stop offset="0%" style="stop-color:rgb(250,218,28);stop-opacity: 1"/>
<stop offset="100%" style="stop-color:rgb(253,203,6);stop-opacity: 1"/>
</linearGradient>
<path d="M 66.241 15.643 c 0.187 0.04 -0.977 -1.118 -0.749 -1.172 c 0.214 0.027 1.027 -0.604 2.01 -0.089 c 0.983 0.515 0.739 1.72 0.628 2.166 c -0.133 0.532 -0.471 0.871 -0.739 1.139 c -0.148 0.121 -0.478 0.308 -0.679 0.295 c 0.121 -0.657 -0.268 -0.764 -0.295 -1.434 L 66.241 15.643 z" style="stroke: none; stroke-width: 1; stroke-dasharray: none; stroke-linecap: butt; stroke-linejoin: miter; stroke-miterlimit: 10; fill: url(#SVGID_4); fill-rule: nonzero; opacity: 1;" transform=" matrix(1 0 0 1 0 0) " stroke-linecap="round"/>
	<path d="M 66.732 18.029 c -0.008 0 -0.016 0 -0.023 0 l -0.053 -0.003 l 0.01 -0.052 c 0.063 -0.347 -0.02 -0.531 -0.116 -0.743 c -0.078 -0.174 -0.167 -0.37 -0.18 -0.68 l -0.188 -0.967 l 0.004 0 c -0.054 -0.079 -0.171 -0.22 -0.27 -0.339 c -0.378 -0.456 -0.529 -0.663 -0.495 -0.765 c 0.009 -0.028 0.03 -0.047 0.061 -0.054 l 0.008 -0.002 l 0.009 0.001 c 0.003 0 0.006 0 0.009 0 c 0.048 0 0.142 -0.037 0.249 -0.079 c 0.383 -0.147 1.021 -0.397 1.768 -0.006 c 0.697 0.365 0.923 1.133 0.652 2.219 c -0.137 0.547 -0.492 0.902 -0.752 1.161 C 67.266 17.85 66.946 18.029 66.732 18.029 z M 66.295 15.671 l 0.168 0.868 c 0.013 0.298 0.094 0.479 0.173 0.652 c 0.093 0.206 0.182 0.401 0.132 0.742 c 0.182 -0.018 0.456 -0.17 0.594 -0.283 c 0.262 -0.262 0.593 -0.592 0.723 -1.114 c 0.26 -1.04 0.051 -1.771 -0.604 -2.114 c -0.711 -0.372 -1.323 -0.132 -1.69 0.011 c -0.124 0.049 -0.218 0.085 -0.284 0.085 c -0.001 0 -0.002 0 -0.003 0 c -0.003 0.075 0.314 0.458 0.485 0.665 c 0.291 0.352 0.345 0.425 0.312 0.48 C 66.299 15.666 66.297 15.668 66.295 15.671 z M 66.251 15.597 l -0.01 0.046 L 66.251 15.597 L 66.251 15.597 z" style="stroke: none; stroke-width: 1; stroke-dasharray: none; stroke-linecap: butt; stroke-linejoin: miter; stroke-miterlimit: 10; fill: rgb(252,209,9); fill-rule: nonzero; opacity: 1;" transform=" matrix(1 0 0 1 0 0) " stroke-linecap="round"/>
	<linearGradient id="SVGID_5" gradientUnits="userSpaceOnUse" gradientTransform="matrix(-1 0 0 1 2045.0859 -110.4912)" x1="2022.1097" y1="124.4903" x2="2022.1321" y2="128.2199">
<stop offset="0%" style="stop-color:rgb(250,218,28);stop-opacity: 1"/>
<stop offset="100%" style="stop-color:rgb(253,203,6);stop-opacity: 1"/>
</linearGradient>
<path d="M 23.405 16.369 c -0.027 0.67 -0.416 0.777 -0.295 1.434 c -0.201 0.013 -0.532 -0.174 -0.679 -0.295 c -0.268 -0.268 -0.606 -0.607 -0.739 -1.139 c -0.111 -0.447 -0.355 -1.652 0.627 -2.167 c 0.983 -0.515 1.796 0.116 2.01 0.09 c 0.228 0.054 -0.936 1.212 -0.749 1.172 L 23.405 16.369 z" style="stroke: none; stroke-width: 1; stroke-dasharray: none; stroke-linecap: butt; stroke-linejoin: miter; stroke-miterlimit: 10; fill: url(#SVGID_5); fill-rule: nonzero; opacity: 1;" transform=" matrix(1 0 0 1 0 0) " stroke-linecap="round"/>
	<path d="M 23.09 17.851 c -0.214 0 -0.534 -0.179 -0.689 -0.306 c -0.277 -0.277 -0.619 -0.618 -0.755 -1.164 c -0.271 -1.087 -0.046 -1.854 0.651 -2.22 c 0.748 -0.391 1.387 -0.143 1.77 0.007 c 0.107 0.042 0.201 0.078 0.248 0.078 c 0.003 0 0.006 0 0.009 0 l 0.008 -0.001 l 0.008 0.001 c 0.03 0.007 0.052 0.026 0.061 0.054 c 0.034 0.102 -0.118 0.309 -0.496 0.765 c -0.1 0.121 -0.22 0.266 -0.272 0.344 l 0.003 0 l -0.01 0.065 l -0.174 0.902 c -0.013 0.307 -0.102 0.503 -0.18 0.675 c -0.096 0.213 -0.179 0.396 -0.116 0.745 l 0.01 0.052 l -0.053 0.003 C 23.106 17.851 23.098 17.851 23.09 17.851 z M 23.125 14.046 c -0.241 0 -0.505 0.052 -0.784 0.198 c -0.654 0.343 -0.863 1.074 -0.604 2.114 c 0.13 0.52 0.461 0.851 0.727 1.117 c 0.134 0.109 0.408 0.262 0.59 0.28 c -0.05 -0.341 0.039 -0.537 0.132 -0.744 c 0.079 -0.173 0.16 -0.353 0.172 -0.644 l 0.001 -0.007 l 0.168 -0.868 c -0.003 -0.003 -0.004 -0.006 -0.006 -0.008 c -0.033 -0.054 0.021 -0.128 0.312 -0.479 c 0.166 -0.201 0.47 -0.567 0.479 -0.665 c -0.065 -0.001 -0.153 -0.036 -0.28 -0.085 C 23.81 14.169 23.496 14.046 23.125 14.046 z" style="stroke: none; stroke-width: 1; stroke-dasharray: none; stroke-linecap: butt; stroke-linejoin: miter; stroke-miterlimit: 10; fill: rgb(252,209,9); fill-rule: nonzero; opacity: 1;" transform=" matrix(1 0 0 1 0 0) " stroke-linecap="round"/>
	<path d="M 64.487 24.227 c 0.202 -0.175 0.336 -0.175 0.603 -0.175 c -1.608 3.484 -3.484 6.968 -6.304 9.681 C 58.487 34 58.17 34.248 57.831 34.48 c -0.323 0.236 -0.639 0.458 -0.954 0.684 c -0.308 0.214 -0.615 0.429 -0.913 0.654 c -0.764 0.415 -1.434 0.992 -2.278 1.246 c -1.541 0.737 -3.202 1.233 -4.877 1.581 c -0.657 0.107 -1.327 0.268 -1.996 0.281 c -0.831 0.241 -1.715 0.067 -2.56 0.121 c -0.469 0.08 -0.884 -0.188 -1.34 -0.134 c -0.396 -0.056 -0.79 -0.123 -1.182 -0.201 c -0.396 -0.081 -0.79 -0.174 -1.185 -0.281 c -6.143 -1.916 -12.173 -6.606 -13.93 -12.949 c -0.078 -0.421 -0.119 -0.853 -0.119 -1.295 c 0.187 0.375 0.382 0.748 0.583 1.117 c 2.499 5.449 7.457 9.737 13.314 11.03 c 0.476 0.217 0.99 0.141 1.446 0.328 c 0.415 0 0.817 -0.013 1.219 0.121 c 1.38 0.027 2.761 0.013 4.141 0.013 c 0.187 0.013 0.361 -0.08 0.549 -0.121 c 2.301 -0.078 4.554 -0.705 6.653 -1.657 c 0.42 -0.19 0.834 -0.394 1.24 -0.608 c 0.36 -0.189 0.706 -0.393 1.041 -0.608 c 0.335 -0.216 0.656 -0.443 0.967 -0.683 c 2.481 -1.965 4.625 -4.511 6.081 -7.439 C 64.009 25.153 64.263 24.665 64.487 24.227 z" style="stroke: none; stroke-width: 1; stroke-dasharray: none; stroke-linecap: butt; stroke-linejoin: miter; stroke-miterlimit: 10; fill: rgb(189,167,39); fill-rule: nonzero; opacity: 1;" transform=" matrix(1 0 0 1 0 0) " stroke-linecap="round"/>
	<path d="M 44.07 39.109 c -0.183 0 -0.359 -0.041 -0.531 -0.08 c -0.211 -0.049 -0.409 -0.093 -0.62 -0.07 l -0.006 0.001 l -0.006 -0.001 c -0.396 -0.056 -0.794 -0.123 -1.185 -0.201 c -0.415 -0.085 -0.804 -0.178 -1.188 -0.282 c -3.159 -0.985 -6.223 -2.699 -8.628 -4.825 c -2.664 -2.354 -4.508 -5.175 -5.334 -8.157 c -0.081 -0.435 -0.121 -0.874 -0.121 -1.308 l 0.089 -0.021 c 0.183 0.366 0.379 0.741 0.582 1.115 c 2.582 5.627 7.546 9.741 13.284 11.007 c 0.252 0.114 0.511 0.147 0.762 0.179 c 0.228 0.029 0.463 0.059 0.684 0.148 h 0.093 c 0.387 -0.001 0.751 -0.002 1.125 0.121 c 1.032 0.02 2.083 0.016 3.098 0.015 c 0.357 0 0.712 0.002 1.07 0 c 0.104 0 0.204 -0.032 0.31 -0.065 c 0.062 -0.02 0.128 -0.041 0.195 -0.055 c 2.153 -0.074 4.385 -0.63 6.643 -1.653 c 0.415 -0.188 0.832 -0.393 1.238 -0.607 c 0.351 -0.185 0.699 -0.389 1.037 -0.606 c 0.333 -0.215 0.657 -0.444 0.964 -0.681 c 2.564 -2.031 4.662 -4.598 6.067 -7.423 c 0.315 -0.601 0.555 -1.062 0.754 -1.454 l 0.012 -0.014 c 0.215 -0.186 0.363 -0.186 0.634 -0.186 h 0.073 l -0.03 0.066 c -1.486 3.22 -3.397 6.89 -6.314 9.695 c -0.31 0.276 -0.623 0.521 -0.961 0.752 c -0.213 0.156 -0.425 0.307 -0.635 0.457 c -0.106 0.076 -0.212 0.151 -0.317 0.227 c -0.343 0.238 -0.628 0.439 -0.912 0.653 c -0.263 0.143 -0.513 0.304 -0.756 0.459 c -0.478 0.307 -0.972 0.624 -1.537 0.794 c -1.407 0.674 -3.006 1.192 -4.881 1.583 c -0.172 0.028 -0.343 0.059 -0.515 0.091 c -0.485 0.089 -0.987 0.181 -1.485 0.191 c -0.541 0.156 -1.109 0.139 -1.66 0.121 c -0.297 -0.009 -0.605 -0.019 -0.903 0 C 44.194 39.104 44.132 39.109 44.07 39.109 z M 43.037 38.859 c 0.18 0 0.354 0.04 0.523 0.079 c 0.221 0.051 0.449 0.104 0.686 0.063 c 0.306 -0.02 0.617 -0.01 0.917 0 c 0.545 0.018 1.106 0.036 1.638 -0.119 l 0.012 -0.002 c 0.492 -0.01 0.993 -0.102 1.477 -0.19 c 0.172 -0.032 0.344 -0.063 0.514 -0.091 c 1.866 -0.388 3.458 -0.904 4.864 -1.578 c 0.56 -0.169 1.049 -0.482 1.521 -0.786 c 0.244 -0.156 0.496 -0.318 0.756 -0.459 c 0.279 -0.211 0.566 -0.414 0.909 -0.651 c 0.104 -0.075 0.211 -0.151 0.316 -0.226 c 0.21 -0.149 0.422 -0.3 0.636 -0.457 c 0.335 -0.229 0.646 -0.473 0.951 -0.745 c 2.884 -2.774 4.784 -6.403 6.262 -9.599 c -0.212 0.001 -0.326 0.016 -0.493 0.158 c -0.198 0.39 -0.437 0.85 -0.749 1.445 c -1.411 2.836 -3.519 5.414 -6.094 7.454 c -0.31 0.239 -0.636 0.47 -0.971 0.686 c -0.34 0.219 -0.691 0.424 -1.045 0.61 c -0.407 0.215 -0.825 0.42 -1.242 0.609 c -2.269 1.029 -4.513 1.588 -6.67 1.661 c -0.055 0.012 -0.118 0.032 -0.179 0.052 c -0.121 0.039 -0.25 0.082 -0.375 0.069 c -0.679 0 -1.365 0.003 -2.061 0.003 c -0.69 0 -1.389 -0.003 -2.079 -0.017 l -0.014 -0.002 c -0.329 -0.11 -0.656 -0.119 -1 -0.119 c -0.034 0 -0.068 0 -0.103 0 l -0.12 -0.003 c -0.211 -0.087 -0.434 -0.115 -0.669 -0.146 c -0.257 -0.033 -0.523 -0.067 -0.779 -0.184 c -2.837 -0.625 -5.582 -1.997 -7.927 -3.963 c -2.294 -1.923 -4.165 -4.375 -5.41 -7.09 c -0.169 -0.311 -0.334 -0.625 -0.491 -0.933 c 0.011 0.362 0.049 0.725 0.116 1.083 c 1.58 5.703 7.035 10.773 13.898 12.913 c 0.38 0.104 0.767 0.196 1.18 0.281 c 0.386 0.077 0.781 0.144 1.173 0.199 C 42.956 38.861 42.997 38.859 43.037 38.859 z" style="stroke: none; stroke-width: 1; stroke-dasharray: none; stroke-linecap: butt; stroke-linejoin: miter; stroke-miterlimit: 10; fill: rgb(189,167,39); fill-rule: nonzero; opacity: 1;" transform=" matrix(1 0 0 1 0 0) " stroke-linecap="round"/>
	<path d="M 62.303 36.139 c 3.979 -2.332 8.59 -3.457 13.173 -3.672 c 1.487 -0.134 2.988 -0.094 4.462 0.094 c 0.964 0.228 1.956 0.496 2.72 1.152 c -0.389 0.027 -0.764 -0.147 -1.152 -0.201 c -1.099 -0.214 -2.238 -0.134 -3.35 -0.161 c -3.23 0 -6.486 0.255 -9.608 1.139 c -1.635 0.496 -3.27 1.072 -4.757 1.93 c -2.573 1.42 -4.891 3.296 -6.767 5.548 c -3.35 3.846 -5.32 8.723 -6.271 13.695 c -0.456 2.666 -0.979 5.319 -1.394 7.999 c -0.67 0.067 -1.353 0.027 -2.023 0.027 c -2.948 -0.013 -5.896 -0.027 -8.845 -0.053 c -0.63 0.026 -1.246 -0.121 -1.876 -0.081 c -5.36 0.027 -10.72 -0.014 -16.08 -0.014 l 0.107 -0.04 c 3.98 -0.416 7.973 -0.885 11.953 -1.274 c 5.052 -0.026 10.091 -0.014 15.142 0 c 0.16 -0.026 0.443 0.053 0.469 -0.174 c 0.416 -2.17 0.818 -4.341 1.232 -6.512 c 0.577 -3.015 1.488 -5.99 2.895 -8.737 C 54.545 42.383 58.042 38.631 62.303 36.139 z" style="stroke: none; stroke-width: 1; stroke-dasharray: none; stroke-linecap: butt; stroke-linejoin: miter; stroke-miterlimit: 10; fill: rgb(13,105,179); fill-rule: nonzero; opacity: 1;" transform=" matrix(1 0 0 1 0 0) " stroke-linecap="round"/>
	<path d="M 48.432 63.748 c -0.185 0 -0.368 -0.003 -0.55 -0.006 c -0.183 -0.003 -0.364 -0.006 -0.546 -0.006 c -2.899 -0.014 -5.897 -0.027 -8.845 -0.054 c -0.303 0.012 -0.61 -0.015 -0.907 -0.042 c -0.316 -0.029 -0.645 -0.059 -0.965 -0.038 c -3.347 0.017 -6.747 0.006 -10.035 -0.002 c -1.982 -0.006 -4.032 -0.012 -6.048 -0.012 l -0.017 -0.091 l 0.119 -0.043 c 1.565 -0.163 3.158 -0.338 4.699 -0.507 c 2.379 -0.262 4.839 -0.531 7.254 -0.767 c 5.175 -0.026 10.473 -0.015 15.146 0 c 0.037 -0.007 0.091 -0.007 0.141 -0.007 c 0.004 0 0.009 0 0.013 0 c 0.158 0 0.256 -0.011 0.269 -0.127 c 0.217 -1.132 0.43 -2.262 0.643 -3.391 c 0.195 -1.041 0.392 -2.083 0.591 -3.124 c 0.626 -3.272 1.602 -6.216 2.898 -8.75 c 2.209 -4.414 5.756 -8.209 9.988 -10.685 l 0 0 c 3.714 -2.176 8.276 -3.448 13.194 -3.678 c 1.447 -0.13 2.952 -0.098 4.471 0.094 c 1.013 0.239 1.981 0.508 2.744 1.163 l 0.087 0.075 l -0.114 0.008 c -0.25 0.017 -0.494 -0.046 -0.732 -0.108 c -0.141 -0.036 -0.286 -0.074 -0.43 -0.094 c -0.804 -0.157 -1.636 -0.158 -2.448 -0.154 c -0.293 0.001 -0.599 0.001 -0.896 -0.006 c -3.805 0 -6.854 0.361 -9.594 1.137 c -1.469 0.446 -3.182 1.023 -4.746 1.926 c -2.631 1.452 -4.903 3.315 -6.755 5.537 c -3.056 3.509 -5.221 8.237 -6.261 13.674 c -0.174 1.016 -0.36 2.047 -0.541 3.044 c -0.293 1.62 -0.597 3.296 -0.854 4.953 l -0.005 0.036 l -0.036 0.004 C 49.055 63.74 48.742 63.748 48.432 63.748 z M 38.489 63.589 c 2.951 0.026 5.948 0.04 8.847 0.054 c 0.182 0 0.364 0.003 0.548 0.006 c 0.473 0.008 0.961 0.016 1.434 -0.029 c 0.256 -1.647 0.557 -3.311 0.849 -4.92 c 0.181 -0.997 0.367 -2.028 0.541 -3.044 c 1.043 -5.455 3.215 -10.198 6.281 -13.718 c 1.858 -2.23 4.14 -4.1 6.78 -5.558 c 1.572 -0.907 3.291 -1.487 4.766 -1.934 c 2.749 -0.778 5.807 -1.141 9.621 -1.141 c 0.298 0.008 0.602 0.007 0.896 0.006 c 0.074 0 0.148 0 0.223 0 c 0.743 0 1.505 0.012 2.241 0.156 c 0.146 0.02 0.294 0.058 0.438 0.095 c 0.198 0.051 0.387 0.1 0.578 0.107 c -0.731 -0.584 -1.648 -0.836 -2.603 -1.062 c -1.508 -0.191 -3.005 -0.223 -4.448 -0.092 c -4.904 0.229 -9.452 1.497 -13.153 3.666 l 0 0 c -4.217 2.466 -7.751 6.247 -9.951 10.646 c -1.293 2.526 -2.266 5.462 -2.891 8.726 c -0.199 1.041 -0.395 2.082 -0.591 3.124 c -0.213 1.129 -0.425 2.259 -0.642 3.388 c -0.022 0.197 -0.207 0.206 -0.353 0.206 c -0.018 -0.001 -0.031 -0.001 -0.045 0 c -0.04 0 -0.078 0.001 -0.109 0.006 c -4.681 -0.012 -9.979 -0.026 -15.149 0.001 c -2.41 0.235 -4.87 0.505 -7.249 0.766 c -1.375 0.151 -2.792 0.307 -4.192 0.454 c 1.815 0.001 3.649 0.006 5.429 0.012 c 3.288 0.008 6.687 0.019 10.032 0.002 c 0.326 -0.021 0.658 0.009 0.977 0.038 C 37.885 63.574 38.188 63.6 38.489 63.589 z" style="stroke: none; stroke-width: 1; stroke-dasharray: none; stroke-linecap: butt; stroke-linejoin: miter; stroke-miterlimit: 10; fill: rgb(13,105,179); fill-rule: nonzero; opacity: 1;" transform=" matrix(1 0 0 1 0 0) " stroke-linecap="round"/>
	<path d="M 68.548 34.49 c 3.122 -0.884 6.378 -1.139 9.608 -1.139 c 1.112 0.027 2.251 -0.054 3.35 0.161 c 0.388 0.054 0.764 0.228 1.152 0.201 c 0.63 0.509 1.005 1.26 1.286 2.01 c 0.617 1.782 0.965 3.631 1.26 5.494 c 0.014 0.75 0.147 1.594 -0.255 2.278 c -0.375 0.67 -1.125 0.992 -1.836 1.193 c -2.586 0.67 -5.293 0.04 -7.879 0.67 c -2.131 0.456 -4.114 1.635 -5.468 3.336 c -1.594 1.983 -2.439 4.448 -2.908 6.915 c -0.361 2.197 -0.817 4.395 -1.179 6.606 c -0.161 0.496 -0.255 1.032 -0.348 1.555 c 2.532 0.04 5.065 0 7.598 0.027 c 0.964 -0.027 1.929 0.027 2.894 -0.041 c 0.536 1.233 0.416 2.627 0.241 3.927 c -0.214 1.46 -0.563 2.908 -1.219 4.248 c -0.55 1.139 -1.461 2.184 -2.707 2.586 c -0.644 0.255 -1.341 0.201 -2.024 0.201 c -2.251 0 -4.502 0.026 -6.754 0 c -0.361 1.648 -0.603 3.337 -0.925 5.012 c -0.589 3.256 -1.165 6.526 -1.755 9.795 c -0.013 0.107 -0.027 0.335 -0.027 0.456 v 0.014 c -5.856 0 -11.698 0.014 -17.554 0 c 0.013 -0.053 0.027 -0.148 0.04 -0.201 c 0.014 -0.067 0.027 -0.214 0.04 -0.294 c 0.014 0.107 0.027 0.308 0.041 0.402 c 0.361 0.041 1.018 0.228 1.112 -0.294 c 0.911 -4.932 1.755 -9.89 2.693 -14.821 c -0.362 -0.08 -0.737 -0.08 -1.112 -0.013 c -0.053 0.187 -0.107 0.375 -0.174 0.562 c 0.027 -0.201 0.053 -0.402 0.08 -0.603 c -3.644 -0.014 -7.303 0 -10.948 -0.014 c -0.884 -0.026 -1.796 0 -2.68 -0.107 c -1.514 -0.067 -3.042 -0.013 -4.556 -0.161 c -1.876 0 -3.739 -0.174 -5.615 -0.174 c -1.474 -0.147 -2.961 -0.094 -4.449 -0.161 c -0.964 -0.121 -1.956 -0.067 -2.934 -0.107 c -1.594 -0.174 -3.216 -0.053 -4.811 -0.228 c -1.688 0.014 -3.377 -0.134 -5.065 -0.174 c 0.013 -0.014 0.027 -0.067 0.027 -0.08 c 0.563 0.013 1.112 -0.027 1.675 -0.04 c 1.246 -0.161 2.506 -0.054 3.752 -0.228 c 1.3 0 2.586 -0.174 3.886 -0.174 c 1.152 -0.16 2.318 -0.067 3.47 -0.227 c 1.354 0 2.68 -0.174 4.034 -0.188 c 1.112 -0.147 2.238 -0.067 3.35 -0.215 c 1.3 0.014 2.586 -0.187 3.886 -0.174 c 1.273 -0.148 2.572 -0.107 3.845 -0.241 c -0.12 -0.496 -0.214 -0.991 -0.321 -1.487 c -0.094 -0.308 -0.469 -0.241 -0.71 -0.281 c -2.908 -0.416 -5.802 -0.831 -8.697 -1.233 c 0.188 -0.148 0.442 -0.081 0.656 -0.107 c 2.252 -0.175 4.49 -0.376 6.741 -0.536 c 0.509 -0.027 1.005 -0.121 1.514 -0.134 c -0.228 -0.697 -0.362 -1.461 -0.67 -2.104 c -4.811 -0.737 -9.621 -1.393 -14.418 -2.184 c 1.246 -0.201 2.506 -0.295 3.752 -0.429 c 5.36 0 10.72 0.04 16.08 0.013 c 0.63 -0.04 1.246 0.107 1.876 0.081 c 2.949 0.027 5.896 0.04 8.845 0.053 c 0.67 0 1.353 0.04 2.023 -0.027 c 0.415 -2.68 0.938 -5.333 1.394 -8 c 0.952 -4.972 2.921 -9.849 6.271 -13.695 c 1.876 -2.251 4.194 -4.127 6.767 -5.548 C 65.278 35.563 66.913 34.986 68.548 34.49 z" style="stroke: none; stroke-width: 1; stroke-dasharray: none; stroke-linecap: butt; stroke-linejoin: miter; stroke-miterlimit: 10; fill: rgb(16,123,212); fill-rule: nonzero; opacity: 1;" transform=" matrix(1 0 0 1 0 0) " stroke-linecap="round"/>
	<path d="M 48.968 90.047 c -1.955 0 -3.918 -0.001 -5.867 -0.006 h -0.06 l 0.014 -0.058 c 0.006 -0.026 0.013 -0.062 0.02 -0.099 c 0.007 -0.037 0.014 -0.075 0.021 -0.103 c 0.007 -0.035 0.014 -0.096 0.021 -0.156 c 0.006 -0.05 0.012 -0.1 0.018 -0.136 l 0.093 0.002 c 0.006 0.051 0.013 0.122 0.02 0.193 c 0.005 0.062 0.011 0.125 0.017 0.173 c 0.042 0.005 0.087 0.012 0.134 0.019 c 0.446 0.069 0.824 0.094 0.89 -0.279 c 0.383 -2.074 0.761 -4.188 1.126 -6.233 c 0.5 -2.803 1.018 -5.7 1.559 -8.543 c -0.322 -0.065 -0.666 -0.068 -1.021 -0.009 c -0.056 0.197 -0.105 0.364 -0.167 0.537 l -0.09 -0.021 c 0.024 -0.184 0.048 -0.367 0.073 -0.55 c -1.805 -0.007 -3.642 -0.007 -5.42 -0.007 c -1.795 0 -3.652 0 -5.474 -0.008 c -0.248 -0.007 -0.496 -0.01 -0.746 -0.014 c -0.639 -0.008 -1.3 -0.016 -1.94 -0.093 c -0.561 -0.024 -1.136 -0.033 -1.693 -0.041 c -0.939 -0.014 -1.911 -0.027 -2.862 -0.12 c -0.002 0 -0.005 0 -0.007 0 c -0.932 0 -1.88 -0.044 -2.798 -0.087 c -0.918 -0.043 -1.868 -0.087 -2.805 -0.087 c -0.923 -0.092 -1.864 -0.105 -2.774 -0.119 c -0.549 -0.009 -1.117 -0.017 -1.676 -0.042 c -0.629 -0.078 -1.278 -0.083 -1.905 -0.088 c -0.338 -0.003 -0.688 -0.006 -1.03 -0.02 c -0.797 -0.087 -1.612 -0.101 -2.4 -0.113 c -0.793 -0.013 -1.613 -0.026 -2.414 -0.114 c -0.076 0 -0.151 0.001 -0.227 0.001 c -0.937 0 -1.888 -0.047 -2.81 -0.093 c -0.664 -0.032 -1.35 -0.066 -2.024 -0.082 l -0.107 -0.003 l 0.074 -0.076 c 0.003 -0.007 0.012 -0.039 0.013 -0.049 l 0.004 -0.044 l 0.044 -0.002 c 0.372 0.01 0.748 -0.007 1.11 -0.021 c 0.187 -0.008 0.374 -0.015 0.563 -0.02 c 0.605 -0.078 1.228 -0.093 1.829 -0.107 c 0.63 -0.016 1.282 -0.031 1.918 -0.12 c 0.655 0 1.312 -0.044 1.946 -0.087 c 0.637 -0.043 1.295 -0.088 1.946 -0.088 c 0.572 -0.08 1.163 -0.097 1.734 -0.113 c 0.568 -0.017 1.156 -0.033 1.73 -0.113 c 0.709 0 1.417 -0.048 2.101 -0.095 c 0.633 -0.043 1.288 -0.087 1.938 -0.094 c 0.553 -0.073 1.123 -0.091 1.674 -0.107 c 0.549 -0.016 1.116 -0.032 1.67 -0.106 c 0.038 0.001 0.075 0.001 0.112 0.001 c 0.617 0 1.235 -0.045 1.833 -0.088 c 0.598 -0.044 1.215 -0.089 1.828 -0.089 c 0.04 0 0.08 0.001 0.119 0.001 c 0.656 -0.076 1.336 -0.103 1.993 -0.129 c 0.59 -0.022 1.2 -0.047 1.794 -0.106 c -0.076 -0.317 -0.143 -0.639 -0.207 -0.95 c -0.033 -0.162 -0.067 -0.324 -0.102 -0.486 c -0.062 -0.203 -0.278 -0.216 -0.487 -0.228 c -0.065 -0.004 -0.128 -0.008 -0.185 -0.018 l -0.627 -0.089 c -2.646 -0.379 -5.383 -0.771 -8.068 -1.144 l -0.109 -0.016 l 0.087 -0.068 c 0.144 -0.113 0.316 -0.106 0.482 -0.109 c 0.068 0 0.135 0.001 0.197 -0.007 c 0.891 -0.069 1.778 -0.142 2.665 -0.215 c 1.335 -0.11 2.716 -0.225 4.078 -0.321 c 0.233 -0.012 0.466 -0.039 0.692 -0.064 c 0.249 -0.028 0.505 -0.058 0.762 -0.068 c -0.072 -0.228 -0.136 -0.464 -0.198 -0.692 c -0.122 -0.45 -0.248 -0.915 -0.44 -1.323 c -1.792 -0.275 -3.613 -0.543 -5.375 -0.802 c -2.958 -0.435 -6.017 -0.884 -9.02 -1.379 l 0 -0.092 c 0.904 -0.146 1.829 -0.237 2.722 -0.325 c 0.345 -0.033 0.689 -0.067 1.032 -0.104 c 0.046 0 0.092 0 0.138 0 c 1.958 0 3.941 0.006 5.861 0.011 c 3.305 0.01 6.723 0.02 10.086 0.002 c 0.329 -0.021 0.658 0.01 0.978 0.039 c 0.294 0.027 0.598 0.053 0.896 0.042 c 2.951 0.026 5.948 0.04 8.846 0.054 c 0.182 0 0.364 0.003 0.548 0.006 c 0.471 0.008 0.961 0.015 1.435 -0.029 c 0.256 -1.649 0.558 -3.314 0.849 -4.926 c 0.18 -0.995 0.366 -2.024 0.54 -3.039 c 1.045 -5.456 3.217 -10.199 6.282 -13.717 c 1.857 -2.23 4.139 -4.1 6.779 -5.558 c 1.572 -0.907 3.291 -1.486 4.766 -1.934 h 0.001 c 2.748 -0.778 5.806 -1.141 9.62 -1.141 c 0.298 0.008 0.602 0.007 0.896 0.006 c 0.811 -0.005 1.653 -0.002 2.464 0.155 c 0.146 0.02 0.294 0.058 0.438 0.095 c 0.24 0.062 0.462 0.12 0.703 0.105 l 0.019 -0.001 l 0.014 0.011 c 0.687 0.555 1.056 1.376 1.301 2.03 c 0.633 1.828 0.98 3.725 1.262 5.503 c 0.004 0.141 0.01 0.278 0.017 0.417 c 0.029 0.648 0.061 1.319 -0.277 1.892 c -0.409 0.732 -1.26 1.043 -1.863 1.213 c -1.319 0.342 -2.689 0.347 -4.014 0.352 c -1.278 0.005 -2.6 0.01 -3.867 0.318 c -2.144 0.458 -4.127 1.669 -5.441 3.32 c -1.399 1.741 -2.348 3.996 -2.898 6.895 c -0.179 1.088 -0.385 2.196 -0.584 3.268 c -0.203 1.093 -0.412 2.222 -0.596 3.338 c -0.155 0.481 -0.248 1 -0.338 1.501 c 1.366 0.021 2.755 0.02 4.098 0.017 c 1.128 0 2.297 -0.003 3.445 0.009 c 0.382 -0.011 0.771 -0.008 1.148 -0.007 c 0.568 0.004 1.159 0.007 1.741 -0.034 l 0.033 -0.002 l 0.013 0.03 c 0.547 1.258 0.413 2.699 0.245 3.951 c -0.252 1.717 -0.641 3.071 -1.224 4.263 c -0.637 1.319 -1.607 2.246 -2.733 2.61 c -0.556 0.219 -1.155 0.218 -1.735 0.205 c -0.102 -0.001 -0.202 -0.002 -0.304 -0.002 c -0.75 0 -1.5 0.003 -2.251 0.006 c -1.462 0.006 -2.976 0.012 -4.465 -0.006 c -0.215 0.982 -0.39 1.997 -0.56 2.979 c -0.112 0.654 -0.229 1.331 -0.357 1.995 c -0.31 1.71 -0.615 3.425 -0.921 5.141 c -0.277 1.55 -0.554 3.103 -0.834 4.654 c -0.013 0.105 -0.025 0.333 -0.025 0.447 v 0.061 h -0.047 c -1.953 0 -3.903 0.002 -5.854 0.003 C 52.882 90.046 50.929 90.047 48.968 90.047 z M 44.14 89.949 c 3.567 0.007 7.168 0.005 10.661 0.001 c 1.936 -0.001 3.871 -0.003 5.808 -0.003 c 0.002 -0.124 0.015 -0.324 0.026 -0.429 c 0.28 -1.554 0.558 -3.105 0.834 -4.656 c 0.307 -1.716 0.612 -3.431 0.922 -5.142 c 0.128 -0.663 0.244 -1.34 0.357 -1.994 c 0.172 -0.994 0.35 -2.022 0.567 -3.019 l 0.008 -0.037 h 0.039 c 1.5 0.018 3.027 0.012 4.502 0.006 c 0.852 -0.004 1.704 -0.012 2.556 -0.004 c 0.571 0.013 1.161 0.014 1.702 -0.2 c 1.489 -0.48 2.319 -1.812 2.682 -2.562 c 0.579 -1.183 0.965 -2.528 1.214 -4.234 c 0.166 -1.229 0.298 -2.642 -0.225 -3.871 c -0.573 0.039 -1.153 0.036 -1.715 0.032 c -0.375 0 -0.765 -0.003 -1.147 0.007 c -1.149 -0.012 -2.315 -0.009 -3.445 -0.009 c -1.358 0.003 -2.769 0.004 -4.154 -0.018 l -0.055 -0.001 l 0.018 -0.102 c 0.091 -0.506 0.185 -1.03 0.341 -1.514 c 0.182 -1.109 0.392 -2.239 0.595 -3.333 c 0.199 -1.07 0.404 -2.179 0.584 -3.267 c 0.554 -2.914 1.508 -5.183 2.917 -6.937 c 1.348 -1.692 3.299 -2.884 5.494 -3.353 c 1.276 -0.311 2.604 -0.316 3.887 -0.321 c 1.319 -0.005 2.683 -0.01 3.99 -0.349 c 0.587 -0.166 1.413 -0.467 1.807 -1.17 c 0.323 -0.55 0.293 -1.206 0.265 -1.841 c -0.007 -0.14 -0.013 -0.278 -0.016 -0.413 c -0.28 -1.768 -0.627 -3.66 -1.257 -5.48 c -0.239 -0.636 -0.598 -1.436 -1.258 -1.977 c -0.021 0.001 -0.044 0.002 -0.066 0.002 c -0.22 0 -0.437 -0.056 -0.647 -0.111 c -0.141 -0.036 -0.286 -0.074 -0.43 -0.094 c -0.804 -0.157 -1.636 -0.158 -2.448 -0.154 c -0.293 0.001 -0.599 0.001 -0.896 -0.006 c -3.805 0 -6.854 0.361 -9.594 1.137 c -1.469 0.446 -3.182 1.023 -4.746 1.925 c -2.631 1.453 -4.902 3.315 -6.754 5.537 c -3.055 3.506 -5.22 8.234 -6.262 13.673 c -0.173 1.014 -0.359 2.044 -0.539 3.039 c -0.294 1.622 -0.597 3.3 -0.854 4.959 L 49.4 63.705 l -0.036 0.004 c -0.492 0.05 -0.995 0.04 -1.482 0.033 c -0.183 -0.003 -0.364 -0.006 -0.546 -0.006 c -2.898 -0.014 -5.896 -0.027 -8.845 -0.054 c -0.304 0.011 -0.61 -0.015 -0.906 -0.043 c -0.316 -0.029 -0.643 -0.059 -0.966 -0.038 c -3.365 0.017 -6.783 0.008 -10.089 -0.002 c -1.964 -0.005 -3.996 -0.011 -5.994 -0.011 c -0.338 0.037 -0.683 0.07 -1.028 0.104 c -0.797 0.078 -1.618 0.159 -2.426 0.278 c 2.909 0.476 5.865 0.91 8.728 1.331 c 1.77 0.261 3.6 0.529 5.4 0.806 l 0.024 0.003 l 0.011 0.022 c 0.202 0.422 0.331 0.9 0.456 1.362 c 0.067 0.248 0.137 0.504 0.216 0.747 l 0.02 0.06 l -0.062 0.002 c -0.274 0.008 -0.549 0.039 -0.816 0.069 c -0.227 0.026 -0.462 0.054 -0.697 0.065 C 29 68.536 27.62 68.65 26.285 68.76 c -0.887 0.073 -1.774 0.146 -2.664 0.216 c -0.065 0.008 -0.139 0.008 -0.207 0.007 c -0.109 0 -0.21 -0.002 -0.301 0.026 c 2.639 0.367 5.325 0.752 7.924 1.123 l 0.628 0.09 c 0.053 0.01 0.113 0.013 0.176 0.017 c 0.218 0.013 0.49 0.028 0.572 0.298 c 0.036 0.166 0.07 0.329 0.103 0.491 c 0.068 0.327 0.138 0.666 0.219 0.999 l 0.013 0.052 l -0.053 0.006 c -0.614 0.064 -1.244 0.089 -1.853 0.112 c -0.655 0.026 -1.333 0.053 -1.992 0.129 c -0.038 -0.001 -0.076 -0.001 -0.114 -0.001 c -0.616 0 -1.233 0.045 -1.832 0.088 c -0.598 0.044 -1.215 0.089 -1.828 0.089 c -0.04 0 -0.08 -0.001 -0.119 -0.001 c -0.552 0.073 -1.122 0.091 -1.673 0.107 c -0.549 0.016 -1.116 0.032 -1.67 0.106 c -0.654 0.007 -1.307 0.051 -1.939 0.094 c -0.686 0.047 -1.396 0.095 -2.101 0.095 c -0.572 0.08 -1.163 0.097 -1.733 0.113 c -0.569 0.017 -1.157 0.033 -1.73 0.113 c -0.655 0 -1.312 0.044 -1.946 0.087 c -0.637 0.043 -1.295 0.088 -1.946 0.088 c -0.635 0.089 -1.289 0.104 -1.922 0.12 c -0.6 0.015 -1.219 0.029 -1.825 0.107 c -0.193 0.005 -0.379 0.012 -0.566 0.02 c -0.217 0.009 -0.439 0.018 -0.662 0.021 c 0.52 0.019 1.041 0.044 1.549 0.068 c 0.995 0.05 2.021 0.105 3.037 0.092 c 0.802 0.088 1.62 0.102 2.411 0.114 c 0.791 0.013 1.607 0.026 2.405 0.113 c 0.338 0.014 0.687 0.017 1.023 0.02 c 0.63 0.005 1.281 0.01 1.912 0.088 c 0.554 0.025 1.122 0.033 1.67 0.042 c 0.912 0.013 1.855 0.027 2.778 0.119 c 0.002 0 0.005 0 0.007 0 c 0.932 0 1.88 0.044 2.798 0.087 c 0.918 0.043 1.868 0.087 2.805 0.087 c 0.952 0.093 1.921 0.106 2.858 0.12 c 0.558 0.008 1.134 0.017 1.699 0.041 c 0.639 0.077 1.297 0.085 1.934 0.093 c 0.25 0.004 0.499 0.007 0.746 0.014 c 1.821 0.007 3.678 0.007 5.473 0.007 c 1.795 0 3.652 0 5.474 0.008 h 0.054 l -0.007 0.053 c -0.002 0.019 -0.005 0.036 -0.007 0.055 c 0.003 -0.011 0.006 -0.022 0.01 -0.033 l 0.008 -0.028 l 0.029 -0.005 c 0.392 -0.07 0.773 -0.065 1.131 0.014 l 0.044 0.01 l -0.009 0.045 c -0.544 2.856 -1.063 5.77 -1.567 8.587 c -0.365 2.045 -0.743 4.159 -1.126 6.233 C 44.349 89.79 44.259 89.893 44.14 89.949 z M 43.159 89.947 c 0.021 0 0.042 0 0.062 0 c -0.001 0 -0.003 0 -0.005 0 l -0.036 -0.004 l -0.005 -0.036 c -0.001 -0.009 -0.002 -0.019 -0.004 -0.028 c -0.001 0.008 -0.003 0.016 -0.004 0.023 C 43.165 89.917 43.162 89.933 43.159 89.947 z" style="stroke: none; stroke-width: 1; stroke-dasharray: none; stroke-linecap: butt; stroke-linejoin: miter; stroke-miterlimit: 10; fill: rgb(16,123,212); fill-rule: nonzero; opacity: 1;" transform=" matrix(1 0 0 1 0 0) " stroke-linecap="round"/>
	<path d="M 65.68 62.215 c 2.546 0.014 5.106 -0.014 7.665 0.014 c 1.019 0 2.064 0.563 2.479 1.527 c -0.964 0.067 -1.93 0.014 -2.894 0.041 c -2.533 -0.027 -5.066 0.014 -7.598 -0.027 C 65.425 63.247 65.519 62.711 65.68 62.215 z" style="stroke: none; stroke-width: 1; stroke-dasharray: none; stroke-linecap: butt; stroke-linejoin: miter; stroke-miterlimit: 10; fill: rgb(13,105,179); fill-rule: nonzero; opacity: 1;" transform=" matrix(1 0 0 1 0 0) " stroke-linecap="round"/>
	<path d="M 72.931 63.844 c -1.148 -0.012 -2.314 -0.008 -3.445 -0.009 c -1.358 0.003 -2.769 0.004 -4.154 -0.018 l -0.055 -0.001 l 0.021 -0.119 c 0.089 -0.5 0.182 -1.019 0.337 -1.496 l 0.011 -0.032 h 0.034 c 1.092 0.005 2.204 0.003 3.279 0.003 c 1.438 -0.003 2.924 -0.005 4.387 0.011 c 1.106 0 2.12 0.625 2.521 1.555 l 0.026 0.061 l -0.066 0.005 c -0.582 0.041 -1.177 0.038 -1.747 0.034 C 73.701 63.837 73.313 63.834 72.931 63.844 z M 70.689 63.74 c 0.745 0 1.497 0.002 2.24 0.01 c 0.383 -0.01 0.771 -0.006 1.149 -0.007 c 0.549 0.003 1.115 0.006 1.674 -0.029 c -0.403 -0.862 -1.361 -1.438 -2.408 -1.438 c -1.464 -0.016 -2.949 -0.014 -4.386 -0.011 c -1.063 0 -2.165 0.002 -3.245 -0.003 c -0.147 0.463 -0.237 0.965 -0.324 1.451 l -0.002 0.011 c 1.367 0.021 2.758 0.021 4.098 0.017 C 69.883 63.741 70.285 63.74 70.689 63.74 z" style="stroke: none; stroke-width: 1; stroke-dasharray: none; stroke-linecap: butt; stroke-linejoin: miter; stroke-miterlimit: 10; fill: rgb(13,105,179); fill-rule: nonzero; opacity: 1;" transform=" matrix(1 0 0 1 0 0) " stroke-linecap="round"/>
	<path d="M 45.915 74.772 c 0.375 -0.067 0.751 -0.067 1.112 0.013 c -0.938 4.932 -1.782 9.89 -2.693 14.821 c -0.094 0.522 -0.75 0.335 -1.112 0.294 c -0.014 -0.094 -0.027 -0.294 -0.04 -0.402 c 0.844 -4.717 1.661 -9.448 2.559 -14.164 C 45.807 75.146 45.861 74.959 45.915 74.772 z" style="stroke: none; stroke-width: 1; stroke-dasharray: none; stroke-linecap: butt; stroke-linejoin: miter; stroke-miterlimit: 10; fill: rgb(13,105,179); fill-rule: nonzero; opacity: 1;" transform=" matrix(1 0 0 1 0 0) " stroke-linecap="round"/>
	<path d="M 43.804 90.012 c -0.145 0 -0.294 -0.022 -0.421 -0.042 c -0.06 -0.009 -0.116 -0.018 -0.167 -0.022 l -0.036 -0.004 l -0.005 -0.036 c -0.008 -0.052 -0.015 -0.135 -0.022 -0.218 c -0.006 -0.068 -0.012 -0.137 -0.018 -0.186 l -0.001 -0.007 l 0.001 -0.007 c 0.22 -1.23 0.439 -2.462 0.657 -3.693 c 0.609 -3.434 1.239 -6.984 1.903 -10.472 c 0.068 -0.193 0.123 -0.383 0.175 -0.566 l 0.008 -0.028 l 0.029 -0.005 c 0.392 -0.07 0.773 -0.065 1.131 0.014 l 0.044 0.01 l -0.009 0.045 c -0.542 2.849 -1.061 5.754 -1.563 8.562 c -0.367 2.053 -0.746 4.176 -1.131 6.258 C 44.322 89.935 44.072 90.012 43.804 90.012 z M 43.263 89.858 c 0.042 0.005 0.087 0.012 0.134 0.019 c 0.446 0.069 0.823 0.094 0.89 -0.279 c 0.385 -2.083 0.764 -4.205 1.131 -6.257 c 0.5 -2.796 1.016 -5.685 1.555 -8.52 c -0.322 -0.065 -0.666 -0.068 -1.021 -0.009 c -0.051 0.177 -0.104 0.358 -0.167 0.537 c -0.662 3.479 -1.292 7.03 -1.9 10.464 c -0.218 1.229 -0.436 2.458 -0.656 3.686 c 0.006 0.05 0.012 0.115 0.018 0.183 C 43.252 89.745 43.257 89.81 43.263 89.858 z" style="stroke: none; stroke-width: 1; stroke-dasharray: none; stroke-linecap: butt; stroke-linejoin: miter; stroke-miterlimit: 10; fill: rgb(13,105,179); fill-rule: nonzero; opacity: 1;" transform=" matrix(1 0 0 1 0 0) " stroke-linecap="round"/>
	<path d="M 66.852 16.018 c -0.107 -0.201 -0.121 -0.442 -0.121 -0.67 l -0.107 0.013 c -0.161 -0.589 -0.656 -1.152 -1.3 -1.179 c -0.482 -0.04 -1.085 -0.027 -1.366 0.429 c -0.536 0.724 -0.282 1.648 -0.308 2.466 c 0 0.054 0.014 0.148 0.014 0.201 c 0 0.549 -0.067 1.085 -0.161 1.622 c -0.08 0.161 -0.121 0.335 -0.121 0.523 c -0.227 1.26 -0.683 2.506 -1.3 3.645 c -0.121 0.161 -0.215 0.335 -0.254 0.523 c -0.402 0.697 -0.885 1.34 -1.38 1.983 c -0.081 0.067 -0.148 0.148 -0.215 0.228 c -0.348 0.429 -0.724 0.791 -1.112 1.166 c -0.094 0.054 -0.16 0.12 -0.241 0.174 c -0.455 0.442 -0.964 0.858 -1.514 1.193 c -0.067 0.04 -0.134 0.094 -0.215 0.147 c -3.43 2.265 -7.597 3.203 -11.658 3.243 c -3.444 0.107 -6.914 -0.63 -10.023 -2.117 c -0.054 -0.027 -0.187 -0.08 -0.242 -0.107 c -0.523 -0.281 -1.058 -0.523 -1.541 -0.871 c -0.107 -0.054 -0.215 -0.121 -0.335 -0.174 c -0.496 -0.295 -0.965 -0.617 -1.407 -0.992 c -0.148 -0.134 -0.308 -0.241 -0.469 -0.362 c -0.483 -0.389 -0.978 -0.804 -1.393 -1.273 c -0.107 -0.12 -0.215 -0.228 -0.322 -0.335 c -1.46 -1.514 -2.599 -3.363 -3.202 -5.374 c -0.576 -1.594 -0.496 -3.336 -0.562 -5.012 c -0.483 -0.737 -1.501 -1.152 -2.305 -0.697 c -0.335 0.241 -0.375 0.683 -0.63 0.992 c -0.415 4.422 1.474 8.831 4.489 12.02 c 0 0.107 0.054 0.174 0.148 0.214 c 0.536 0.496 1.058 1.005 1.594 1.487 c 0.094 0.094 0.201 0.188 0.322 0.268 c 0.536 0.442 1.112 0.844 1.675 1.26 c 0.107 0.08 0.214 0.147 0.335 0.214 c 0.737 0.429 1.434 0.938 2.225 1.233 c 0.054 0.04 0.147 0.107 0.201 0.134 c 2.546 1.22 5.293 2.05 8.107 2.318 c 0.308 0 0.617 0.027 0.925 0.094 c 1.341 0.08 2.68 0.04 4.02 0.014 c 4.14 -0.362 8.415 -1.367 11.873 -3.806 l 0.04 0.054 c 0.107 -0.094 0.201 -0.174 0.308 -0.255 c 0.55 -0.402 1.086 -0.831 1.622 -1.273 c 0.121 -0.094 0.254 -0.201 0.375 -0.321 c 0.589 -0.643 1.273 -1.233 1.769 -1.97 l 0.08 0.04 c 0.04 -0.067 0.107 -0.201 0.148 -0.268 c 0.455 -0.616 0.871 -1.26 1.273 -1.903 c 0.026 -0.04 0.094 -0.107 0.12 -0.147 l -0.053 -0.054 c 0.04 -0.054 0.134 -0.161 0.174 -0.215 c 0.737 -1.501 1.393 -3.069 1.621 -4.73 c 0.094 -0.04 0.148 -0.121 0.148 -0.215 c 0.014 -0.536 0.201 -1.045 0.147 -1.581 C 66.865 17.358 66.878 16.688 66.852 16.018 z" style="stroke: none; stroke-width: 1; stroke-dasharray: none; stroke-linecap: butt; stroke-linejoin: miter; stroke-miterlimit: 10; fill: rgb(255,255,255); fill-rule: nonzero; opacity: 1;" transform=" matrix(1 0 0 1 0 0) " stroke-linecap="round"/>
	<path d="M 44.864 34.738 c -0.595 0 -1.193 -0.012 -1.787 -0.047 c -0.294 -0.063 -0.593 -0.094 -0.921 -0.094 c -2.715 -0.258 -5.448 -1.04 -8.127 -2.323 c -0.054 -0.026 -0.139 -0.087 -0.203 -0.135 c -0.572 -0.214 -1.102 -0.543 -1.615 -0.862 c -0.199 -0.124 -0.405 -0.252 -0.61 -0.372 c -0.132 -0.073 -0.237 -0.14 -0.34 -0.217 c -0.14 -0.103 -0.28 -0.206 -0.421 -0.308 c -0.419 -0.305 -0.852 -0.62 -1.255 -0.953 c -0.106 -0.07 -0.217 -0.163 -0.325 -0.271 c -0.321 -0.289 -0.646 -0.595 -0.958 -0.891 c -0.208 -0.197 -0.417 -0.395 -0.628 -0.59 c -0.106 -0.047 -0.162 -0.126 -0.168 -0.235 c -3.201 -3.393 -4.879 -7.894 -4.49 -12.043 l 0.001 -0.014 l 0.009 -0.011 c 0.102 -0.124 0.17 -0.274 0.237 -0.42 c 0.097 -0.212 0.196 -0.432 0.402 -0.58 c 0.861 -0.485 1.9 -0.011 2.372 0.709 l 0.007 0.011 l 0 0.013 c 0.012 0.309 0.02 0.62 0.027 0.932 c 0.032 1.363 0.065 2.772 0.533 4.066 c 0.584 1.944 1.688 3.796 3.192 5.357 c 0.105 0.105 0.215 0.215 0.323 0.336 c 0.427 0.482 0.94 0.908 1.387 1.268 c 0.041 0.031 0.083 0.062 0.125 0.092 c 0.116 0.084 0.235 0.171 0.346 0.272 c 0.407 0.345 0.865 0.668 1.399 0.986 c 0.071 0.031 0.141 0.069 0.208 0.106 c 0.042 0.023 0.083 0.045 0.124 0.066 c 0.362 0.261 0.755 0.463 1.135 0.659 c 0.136 0.07 0.271 0.14 0.407 0.212 c 0.024 0.013 0.07 0.032 0.115 0.051 c 0.048 0.021 0.097 0.042 0.125 0.056 c 2.912 1.394 6.128 2.123 9.343 2.123 c 0.219 0 0.438 -0.003 0.658 -0.01 c 4.472 -0.044 8.495 -1.164 11.634 -3.235 c 0.034 -0.023 0.066 -0.045 0.097 -0.067 c 0.041 -0.03 0.08 -0.058 0.119 -0.081 c 0.506 -0.309 1.013 -0.708 1.506 -1.186 c 0.039 -0.027 0.069 -0.051 0.1 -0.075 c 0.046 -0.036 0.093 -0.073 0.15 -0.106 l 0.002 -0.004 c 0.389 -0.374 0.755 -0.728 1.098 -1.15 v 0 l 0.008 -0.009 c 0.064 -0.077 0.132 -0.157 0.213 -0.225 c 0.488 -0.635 0.965 -1.27 1.366 -1.964 c 0.039 -0.177 0.124 -0.352 0.262 -0.534 c 0.623 -1.153 1.071 -2.409 1.291 -3.625 c -0.001 -0.183 0.04 -0.364 0.121 -0.529 c 0.11 -0.631 0.159 -1.127 0.159 -1.607 c 0 -0.025 -0.003 -0.061 -0.007 -0.096 c -0.003 -0.039 -0.007 -0.077 -0.007 -0.105 c 0.007 -0.212 -0.006 -0.436 -0.018 -0.652 c -0.035 -0.636 -0.071 -1.292 0.335 -1.841 c 0.294 -0.476 0.906 -0.489 1.408 -0.448 c 0.685 0.029 1.164 0.622 1.33 1.175 l 0.12 -0.015 v 0.053 c 0 0.224 0.014 0.458 0.115 0.648 l 0.006 0.02 c 0.031 0.791 -0.003 1.427 -0.106 2 c 0.031 0.314 -0.021 0.623 -0.069 0.921 c -0.036 0.215 -0.072 0.437 -0.078 0.659 c 0 0.104 -0.056 0.194 -0.151 0.245 c -0.244 1.744 -0.957 3.364 -1.622 4.719 c -0.024 0.034 -0.058 0.073 -0.09 0.113 c -0.023 0.027 -0.046 0.054 -0.064 0.078 l 0.05 0.051 l -0.02 0.031 c -0.015 0.022 -0.039 0.051 -0.064 0.081 c -0.021 0.024 -0.043 0.049 -0.056 0.067 c -0.36 0.576 -0.794 1.253 -1.274 1.905 c -0.02 0.032 -0.048 0.085 -0.076 0.138 c -0.025 0.048 -0.05 0.095 -0.069 0.126 l -0.022 0.038 l -0.083 -0.042 c -0.343 0.501 -0.774 0.938 -1.191 1.362 c -0.187 0.188 -0.379 0.383 -0.559 0.58 c -0.122 0.121 -0.255 0.229 -0.38 0.327 c -0.642 0.529 -1.143 0.922 -1.624 1.274 c -0.101 0.075 -0.19 0.152 -0.304 0.252 l -0.038 0.034 l -0.044 -0.058 c -3.016 2.115 -6.896 3.354 -11.858 3.788 l -0.399 0.008 C 46.1 34.726 45.483 34.738 44.864 34.738 z M 42.164 34.503 c 0.329 0 0.634 0.031 0.926 0.095 c 1.2 0.072 2.427 0.046 3.613 0.021 l 0.396 -0.008 c 4.963 -0.434 8.84 -1.676 11.847 -3.797 l 0.038 -0.026 l 0.036 0.049 c 0.099 -0.085 0.181 -0.155 0.272 -0.224 c 0.48 -0.351 0.98 -0.743 1.62 -1.271 c 0.125 -0.097 0.255 -0.202 0.372 -0.318 c 0.18 -0.196 0.372 -0.391 0.559 -0.581 c 0.425 -0.43 0.863 -0.875 1.204 -1.383 l 0.023 -0.034 l 0.078 0.039 c 0.014 -0.025 0.029 -0.055 0.045 -0.084 c 0.029 -0.054 0.059 -0.11 0.081 -0.146 c 0.481 -0.653 0.914 -1.328 1.273 -1.903 c 0.015 -0.022 0.039 -0.05 0.063 -0.079 c 0.012 -0.014 0.023 -0.027 0.034 -0.04 l -0.053 -0.054 l 0.024 -0.032 c 0.021 -0.028 0.057 -0.071 0.092 -0.113 c 0.032 -0.039 0.063 -0.076 0.083 -0.102 c 0.66 -1.348 1.372 -2.968 1.611 -4.708 l 0.004 -0.026 l 0.024 -0.01 c 0.075 -0.033 0.119 -0.095 0.119 -0.172 c 0.006 -0.229 0.043 -0.455 0.079 -0.673 c 0.051 -0.308 0.099 -0.599 0.068 -0.903 l 0.001 -0.013 c 0.103 -0.566 0.136 -1.194 0.105 -1.976 c -0.099 -0.19 -0.118 -0.413 -0.121 -0.629 l -0.095 0.012 l -0.011 -0.039 c -0.146 -0.532 -0.602 -1.117 -1.257 -1.145 c -0.474 -0.04 -1.056 -0.029 -1.324 0.406 c -0.389 0.525 -0.354 1.165 -0.319 1.784 c 0.012 0.218 0.024 0.444 0.018 0.659 c 0 0.024 0.003 0.06 0.007 0.095 c 0.003 0.038 0.007 0.076 0.007 0.104 c 0 0.487 -0.05 0.99 -0.162 1.63 l -0.004 0.013 c -0.076 0.154 -0.115 0.323 -0.115 0.502 c -0.222 1.233 -0.673 2.499 -1.306 3.667 c -0.134 0.18 -0.215 0.345 -0.25 0.51 l -0.005 0.014 c -0.404 0.702 -0.886 1.341 -1.384 1.988 c -0.082 0.069 -0.144 0.143 -0.209 0.22 c -0.353 0.435 -0.721 0.791 -1.111 1.167 L 59.152 27 c -0.061 0.037 -0.105 0.072 -0.147 0.105 c -0.033 0.026 -0.065 0.051 -0.1 0.074 c -0.491 0.478 -1.004 0.881 -1.516 1.194 c -0.038 0.022 -0.074 0.049 -0.113 0.077 c -0.032 0.022 -0.064 0.046 -0.101 0.069 c -3.153 2.082 -7.193 3.206 -11.683 3.251 c -0.22 0.007 -0.44 0.01 -0.66 0.01 c -3.228 0 -6.458 -0.732 -9.383 -2.132 c -0.028 -0.014 -0.075 -0.034 -0.121 -0.054 c -0.047 -0.021 -0.094 -0.041 -0.122 -0.054 c -0.136 -0.073 -0.271 -0.143 -0.406 -0.212 c -0.383 -0.198 -0.78 -0.402 -1.141 -0.663 c -0.036 -0.017 -0.078 -0.04 -0.121 -0.063 c -0.066 -0.036 -0.134 -0.074 -0.207 -0.105 c -0.543 -0.323 -1.006 -0.649 -1.418 -0.999 c -0.108 -0.098 -0.221 -0.18 -0.339 -0.266 c -0.042 -0.031 -0.085 -0.062 -0.128 -0.094 c -0.452 -0.364 -0.968 -0.792 -1.4 -1.28 c -0.106 -0.119 -0.215 -0.228 -0.32 -0.333 c -1.516 -1.573 -2.627 -3.437 -3.214 -5.393 c -0.472 -1.306 -0.505 -2.723 -0.538 -4.093 c -0.007 -0.307 -0.014 -0.613 -0.026 -0.917 c -0.453 -0.679 -1.43 -1.127 -2.236 -0.671 c -0.181 0.13 -0.271 0.329 -0.367 0.54 c -0.067 0.147 -0.136 0.299 -0.241 0.43 c -0.382 4.125 1.291 8.598 4.479 11.969 l 0.013 0.014 v 0.019 c 0 0.083 0.037 0.136 0.119 0.171 l 0.013 0.008 c 0.213 0.198 0.424 0.397 0.635 0.596 c 0.312 0.295 0.636 0.601 0.958 0.892 c 0.106 0.105 0.212 0.194 0.316 0.264 c 0.405 0.334 0.837 0.648 1.255 0.952 c 0.141 0.103 0.282 0.205 0.422 0.309 c 0.1 0.075 0.201 0.14 0.33 0.211 c 0.208 0.121 0.414 0.249 0.614 0.373 c 0.511 0.318 1.039 0.646 1.604 0.857 l 0.011 0.006 c 0.087 0.065 0.156 0.111 0.193 0.129 c 2.669 1.278 5.392 2.057 8.091 2.313 C 42.162 34.503 42.163 34.503 42.164 34.503 z" style="stroke: none; stroke-width: 1; stroke-dasharray: none; stroke-linecap: butt; stroke-linejoin: miter; stroke-miterlimit: 10; fill: rgb(255,255,255); fill-rule: nonzero; opacity: 1;" transform=" matrix(1 0 0 1 0 0) " stroke-linecap="round"/>
	<path d="M 23.505 14.604 c -0.175 0.244 -0.247 0.559 -0.444 0.798 c -0.039 0.413 -0.038 0.825 -0.037 1.237 c 0.316 -0.013 0.642 -0.039 0.979 -0.071 c 0.521 -0.05 1.396 -0.134 1.573 -0.064 l 0.448 -0.403 c -0.008 -0.332 -0.015 -0.664 -0.028 -0.992 c -0.162 -0.247 -0.387 -0.453 -0.641 -0.607 c -0.494 -0.021 -1.022 0.026 -1.545 0.076 C 23.715 14.585 23.61 14.595 23.505 14.604 z" style="stroke: none; stroke-width: 1; stroke-dasharray: none; stroke-linecap: butt; stroke-linejoin: miter; stroke-miterlimit: 10; fill: rgb(209,209,209); fill-rule: nonzero; opacity: 1;" transform=" matrix(1 0 0 1 0 0) " stroke-linecap="round"/>
	<path d="M 26.259 19.001 c -0.125 -0.652 -0.18 -1.319 -0.208 -1.988 c -0.891 0.008 -1.932 0.298 -2.984 0.657 c 0.053 0.678 0.155 1.349 0.304 2.011 C 25.162 19.056 25.94 18.949 26.259 19.001 z" style="stroke: none; stroke-width: 1; stroke-dasharray: none; stroke-linecap: butt; stroke-linejoin: miter; stroke-miterlimit: 10; fill: rgb(209,209,209); fill-rule: nonzero; opacity: 1;" transform=" matrix(1 0 0 1 0 0) " stroke-linecap="round"/>
	<path d="M 24.546 23.049 c 0.426 -0.163 0.838 -0.433 1.22 -0.695 c 0.16 -0.11 0.303 -0.213 0.417 -0.272 c 0.337 -0.177 0.652 -0.317 0.957 -0.429 c -0.226 -0.499 -0.423 -1.01 -0.581 -1.534 c -0.041 -0.113 -0.072 -0.229 -0.106 -0.343 c -0.388 0.143 -0.783 0.316 -1.201 0.535 c -0.167 0.088 -0.384 0.233 -0.62 0.395 c -0.231 0.159 -0.663 0.456 -0.83 0.496 c 0.001 0 0.094 -0.021 0.234 0.023 l -0.115 0.354 C 24.105 22.079 24.314 22.568 24.546 23.049 z" style="stroke: none; stroke-width: 1; stroke-dasharray: none; stroke-linecap: butt; stroke-linejoin: miter; stroke-miterlimit: 10; fill: rgb(209,209,209); fill-rule: nonzero; opacity: 1;" transform=" matrix(1 0 0 1 0 0) " stroke-linecap="round"/>
	<path d="M 27.8 24.606 c 0.294 -0.205 0.55 -0.372 0.786 -0.52 c -0.398 -0.538 -0.747 -1.107 -1.062 -1.696 c -0.276 0.173 -0.564 0.362 -0.87 0.576 c -0.55 0.384 -1.029 0.813 -1.46 1.287 c 0.354 0.604 0.736 1.19 1.16 1.746 C 26.762 25.473 27.227 25.006 27.8 24.606 z" style="stroke: none; stroke-width: 1; stroke-dasharray: none; stroke-linecap: butt; stroke-linejoin: miter; stroke-miterlimit: 10; fill: rgb(209,209,209); fill-rule: nonzero; opacity: 1;" transform=" matrix(1 0 0 1 0 0) " stroke-linecap="round"/>
	<path d="M 28.401 27.83 c 0.175 -0.271 0.34 -0.528 0.525 -0.674 c 0.31 -0.247 0.825 -0.398 1.322 -0.545 c 0.157 -0.046 0.317 -0.095 0.475 -0.147 c -0.225 -0.202 -0.443 -0.413 -0.641 -0.637 c -0.107 -0.12 -0.215 -0.228 -0.322 -0.335 c -0.199 -0.207 -0.376 -0.434 -0.563 -0.653 c -0.515 0.165 -1.051 0.379 -1.517 0.75 c -0.38 0.302 -0.634 0.658 -0.853 0.992 c 0.237 0.284 0.469 0.572 0.722 0.84 c 0 0.107 0.054 0.174 0.148 0.214 c 0.173 0.16 0.344 0.319 0.515 0.48 C 28.279 28.019 28.341 27.923 28.401 27.83 z" style="stroke: none; stroke-width: 1; stroke-dasharray: none; stroke-linecap: butt; stroke-linejoin: miter; stroke-miterlimit: 10; fill: rgb(209,209,209); fill-rule: nonzero; opacity: 1;" transform=" matrix(1 0 0 1 0 0) " stroke-linecap="round"/>
	<path d="M 32.037 28.264 l 0.061 -0.684 c -0.05 -0.041 -0.104 -0.076 -0.153 -0.118 c -0.148 -0.134 -0.308 -0.241 -0.469 -0.362 c -0.222 -0.179 -0.445 -0.365 -0.664 -0.557 c -0.867 0.404 -1.599 1.205 -2.032 2.103 c 0.17 0.159 0.34 0.323 0.512 0.478 c 0.094 0.094 0.201 0.188 0.322 0.268 c 0.256 0.211 0.522 0.413 0.791 0.612 C 30.599 29.152 31.458 28.193 32.037 28.264 z" style="stroke: none; stroke-width: 1; stroke-dasharray: none; stroke-linecap: butt; stroke-linejoin: miter; stroke-miterlimit: 10; fill: rgb(209,209,209); fill-rule: nonzero; opacity: 1;" transform=" matrix(1 0 0 1 0 0) " stroke-linecap="round"/>
	<path d="M 35.228 29.499 c -0.523 -0.281 -1.058 -0.523 -1.541 -0.871 c -0.107 -0.054 -0.215 -0.121 -0.335 -0.174 c -0.068 -0.04 -0.131 -0.086 -0.198 -0.128 c -0.306 0.2 -0.61 0.448 -0.905 0.779 c -0.214 0.241 -0.401 0.559 -0.599 0.896 c -0.101 0.172 -0.254 0.429 -0.393 0.628 c 0.01 0.008 0.021 0.015 0.032 0.023 c 0.107 0.08 0.214 0.147 0.335 0.214 c 0.452 0.263 0.891 0.552 1.344 0.807 c 0.145 -0.216 0.279 -0.442 0.407 -0.66 c 0.126 -0.216 0.284 -0.484 0.367 -0.577 c 0.442 -0.496 0.897 -0.68 1.587 -0.892 C 35.29 29.527 35.25 29.51 35.228 29.499 z" style="stroke: none; stroke-width: 1; stroke-dasharray: none; stroke-linecap: butt; stroke-linejoin: miter; stroke-miterlimit: 10; fill: rgb(209,209,209); fill-rule: nonzero; opacity: 1;" transform=" matrix(1 0 0 1 0 0) " stroke-linecap="round"/>
	<path d="M 36.181 33.134 c 0.106 -0.72 0.663 -2.025 1.04 -2.207 c -0.012 0.006 -0.066 0.021 -0.128 0.013 l 0.078 -0.619 c -0.518 -0.196 -1.031 -0.406 -1.533 -0.641 c -0.64 0.682 -1.102 1.755 -1.324 2.666 C 34.927 32.632 35.549 32.896 36.181 33.134 z" style="stroke: none; stroke-width: 1; stroke-dasharray: none; stroke-linecap: butt; stroke-linejoin: miter; stroke-miterlimit: 10; fill: rgb(209,209,209); fill-rule: nonzero; opacity: 1;" transform=" matrix(1 0 0 1 0 0) " stroke-linecap="round"/>
	<path d="M 39.725 31.109 c -0.649 -0.158 -1.293 -0.337 -1.925 -0.554 c -0.426 0.931 -0.648 2.042 -0.734 2.876 c 0.646 0.216 1.3 0.404 1.962 0.564 C 39.057 33.042 39.394 31.732 39.725 31.109 z" style="stroke: none; stroke-width: 1; stroke-dasharray: none; stroke-linecap: butt; stroke-linejoin: miter; stroke-miterlimit: 10; fill: rgb(209,209,209); fill-rule: nonzero; opacity: 1;" transform=" matrix(1 0 0 1 0 0) " stroke-linecap="round"/>
	<path d="M 42.629 31.935 l -0.333 -0.362 c -0.565 -0.067 -1.128 -0.153 -1.687 -0.264 c -0.532 0.884 -0.728 1.934 -0.761 2.887 c 0.661 0.135 1.327 0.236 1.997 0.31 C 41.852 33.482 42.054 32.464 42.629 31.935 z" style="stroke: none; stroke-width: 1; stroke-dasharray: none; stroke-linecap: butt; stroke-linejoin: miter; stroke-miterlimit: 10; fill: rgb(209,209,209); fill-rule: nonzero; opacity: 1;" transform=" matrix(1 0 0 1 0 0) " stroke-linecap="round"/>
	<path d="M 45.213 32.371 l -0.461 -0.647 c -0.493 -0.002 -0.985 -0.019 -1.477 -0.055 c -0.438 0.899 -0.311 2.006 -0.091 2.978 c 0.689 0.038 1.377 0.047 2.065 0.042 C 45.021 33.806 44.777 32.681 45.213 32.371 z" style="stroke: none; stroke-width: 1; stroke-dasharray: none; stroke-linecap: butt; stroke-linejoin: miter; stroke-miterlimit: 10; fill: rgb(209,209,209); fill-rule: nonzero; opacity: 1;" transform=" matrix(1 0 0 1 0 0) " stroke-linecap="round"/>
	<path d="M 49.11 34.421 c -0.257 -0.852 -0.435 -2.389 -0.312 -2.822 l -0.25 -0.082 c -0.583 0.074 -1.169 0.122 -1.754 0.156 c -0.053 0.823 0.062 1.985 0.323 2.982 C 47.78 34.598 48.445 34.516 49.11 34.421 z" style="stroke: none; stroke-width: 1; stroke-dasharray: none; stroke-linecap: butt; stroke-linejoin: miter; stroke-miterlimit: 10; fill: rgb(209,209,209); fill-rule: nonzero; opacity: 1;" transform=" matrix(1 0 0 1 0 0) " stroke-linecap="round"/>
	<path d="M 52.062 32.115 c -0.034 -0.19 -0.014 -0.515 0.005 -0.802 c 0.012 -0.185 0.022 -0.364 0.023 -0.539 c -0.667 0.195 -1.34 0.369 -2.023 0.501 c -0.023 0.378 -0.045 0.794 0.026 1.194 c 0.114 0.628 0.356 1.179 0.622 1.683 c 0.68 -0.132 1.355 -0.289 2.023 -0.471 C 52.432 33.155 52.159 32.647 52.062 32.115 z" style="stroke: none; stroke-width: 1; stroke-dasharray: none; stroke-linecap: butt; stroke-linejoin: miter; stroke-miterlimit: 10; fill: rgb(209,209,209); fill-rule: nonzero; opacity: 1;" transform=" matrix(1 0 0 1 0 0) " stroke-linecap="round"/>
	<path d="M 55.416 29.706 l -0.299 -0.092 c -0.582 0.281 -1.176 0.536 -1.783 0.757 c -0.018 0.941 0.158 2.065 0.607 2.946 c 0.64 -0.211 1.269 -0.448 1.885 -0.718 C 55.432 32.025 55.182 30.464 55.416 29.706 z" style="stroke: none; stroke-width: 1; stroke-dasharray: none; stroke-linecap: butt; stroke-linejoin: miter; stroke-miterlimit: 10; fill: rgb(209,209,209); fill-rule: nonzero; opacity: 1;" transform=" matrix(1 0 0 1 0 0) " stroke-linecap="round"/>
	<path d="M 57.98 27.901 c -0.2 0.151 -0.401 0.302 -0.615 0.431 c -0.067 0.04 -0.134 0.094 -0.215 0.147 c -0.335 0.221 -0.683 0.42 -1.031 0.616 c 0.217 1.033 0.635 1.914 1.081 2.822 c 0.001 0.003 0.003 0.006 0.004 0.009 c 0.589 -0.317 1.167 -0.656 1.718 -1.042 C 58.417 29.853 58.031 28.987 57.98 27.901 z" style="stroke: none; stroke-width: 1; stroke-dasharray: none; stroke-linecap: butt; stroke-linejoin: miter; stroke-miterlimit: 10; fill: rgb(209,209,209); fill-rule: nonzero; opacity: 1;" transform=" matrix(1 0 0 1 0 0) " stroke-linecap="round"/>
	<path d="M 60.017 26.04 c -0.287 0.325 -0.585 0.625 -0.897 0.926 c -0.094 0.054 -0.16 0.12 -0.241 0.174 c -0.153 0.148 -0.319 0.286 -0.483 0.426 c 0.476 0.988 1.29 1.776 1.944 2.286 c 0.2 -0.16 0.404 -0.309 0.604 -0.474 c 0.121 -0.094 0.254 -0.201 0.375 -0.321 c 0.175 -0.191 0.358 -0.378 0.542 -0.564 C 60.978 27.87 60.053 26.913 60.017 26.04 z" style="stroke: none; stroke-width: 1; stroke-dasharray: none; stroke-linecap: butt; stroke-linejoin: miter; stroke-miterlimit: 10; fill: rgb(209,209,209); fill-rule: nonzero; opacity: 1;" transform=" matrix(1 0 0 1 0 0) " stroke-linecap="round"/>
	<path d="M 61.486 24.116 c -0.325 0.497 -0.673 0.98 -1.039 1.456 c -0.056 0.047 -0.102 0.103 -0.149 0.158 c 0.742 0.651 1.616 1.264 2.525 1.702 c 0.09 -0.114 0.183 -0.225 0.264 -0.346 l 0.08 0.04 c 0.04 -0.067 0.107 -0.201 0.148 -0.268 c 0.258 -0.349 0.501 -0.708 0.738 -1.069 C 63.161 25.429 62.23 24.792 61.486 24.116 z" style="stroke: none; stroke-width: 1; stroke-dasharray: none; stroke-linecap: butt; stroke-linejoin: miter; stroke-miterlimit: 10; fill: rgb(209,209,209); fill-rule: nonzero; opacity: 1;" transform=" matrix(1 0 0 1 0 0) " stroke-linecap="round"/>
	<path d="M 62.761 21.579 c -0.197 0.509 -0.42 1.009 -0.679 1.487 c -0.078 0.104 -0.137 0.215 -0.185 0.33 c 0.944 0.589 2.024 1.028 2.807 1.3 c 0.045 -0.054 0.097 -0.117 0.127 -0.156 c 0.263 -0.536 0.506 -1.084 0.733 -1.638 C 64.634 22.603 63.52 22.073 62.761 21.579 z" style="stroke: none; stroke-width: 1; stroke-dasharray: none; stroke-linecap: butt; stroke-linejoin: miter; stroke-miterlimit: 10; fill: rgb(209,209,209); fill-rule: nonzero; opacity: 1;" transform=" matrix(1 0 0 1 0 0) " stroke-linecap="round"/>
	<path d="M 66.273 19.518 c -0.907 -0.293 -1.89 -0.611 -2.716 -1.007 c -0.019 0.129 -0.033 0.259 -0.056 0.388 c -0.08 0.161 -0.121 0.335 -0.121 0.523 c -0.066 0.365 -0.156 0.728 -0.259 1.088 c 0.827 0.358 1.71 0.644 2.536 0.911 c 0.132 0.043 0.259 0.084 0.387 0.126 c 0.174 -0.569 0.323 -1.145 0.405 -1.737 c 0.085 -0.036 0.131 -0.107 0.14 -0.189 C 66.485 19.586 66.382 19.552 66.273 19.518 z" style="stroke: none; stroke-width: 1; stroke-dasharray: none; stroke-linecap: butt; stroke-linejoin: miter; stroke-miterlimit: 10; fill: rgb(209,209,209); fill-rule: nonzero; opacity: 1;" transform=" matrix(1 0 0 1 0 0) " stroke-linecap="round"/>
	<path d="M 64.629 16.456 c -0.339 -0.059 -0.672 -0.134 -1.006 -0.219 c 0.014 0.284 0.035 0.568 0.027 0.84 c 0 0.054 0.014 0.148 0.014 0.201 c 0 0.337 -0.03 0.669 -0.072 0.999 c 0.231 0.052 0.458 0.109 0.698 0.15 c 0.325 0.056 0.692 0.144 1.074 0.234 c 0.421 0.099 0.867 0.204 1.312 0.284 c 0.051 -0.308 0.102 -0.615 0.071 -0.931 c 0.064 -0.355 0.094 -0.713 0.107 -1.073 c -0.342 -0.067 -0.694 -0.147 -1.029 -0.226 C 65.399 16.614 64.991 16.519 64.629 16.456 z" style="stroke: none; stroke-width: 1; stroke-dasharray: none; stroke-linecap: butt; stroke-linejoin: miter; stroke-miterlimit: 10; fill: rgb(209,209,209); fill-rule: nonzero; opacity: 1;" transform=" matrix(1 0 0 1 0 0) " stroke-linecap="round"/>
	<path d="M 66.853 16.306 c -0.002 -0.096 0.003 -0.192 0 -0.288 c -0.107 -0.201 -0.121 -0.442 -0.121 -0.67 l -0.107 0.013 c -0.151 -0.554 -0.603 -1.067 -1.19 -1.152 c -0.068 -0.01 -0.136 -0.019 -0.203 -0.031 c -0.465 -0.03 -1.009 0.005 -1.273 0.432 c -0.282 0.381 -0.344 0.818 -0.344 1.266 c 0.975 0.256 1.981 0.435 3.036 0.435 C 66.717 16.312 66.785 16.307 66.853 16.306 z" style="stroke: none; stroke-width: 1; stroke-dasharray: none; stroke-linecap: butt; stroke-linejoin: miter; stroke-miterlimit: 10; fill: rgb(209,209,209); fill-rule: nonzero; opacity: 1;" transform=" matrix(1 0 0 1 0 0) " stroke-linecap="round"/>
</g>
</svg>